<svg width="13" height="9" viewBox="0 0 13 9" fill="none" xmlns="http://www.w3.org/2000/svg">
<path fill-rule="evenodd" clip-rule="evenodd" d="M7.7253 0.240489C8.1011 -0.0977326 8.68863 -0.0766417 9.03759 0.287598L12.7519 4.16452C12.9198 4.33977 13.0088 4.57258 12.9993 4.81156C12.9898 5.05054 12.8826 5.27603 12.7013 5.43824L8.98697 8.76132C8.61014 9.09846 8.02267 9.07569 7.67483 8.71045C7.32698 8.34521 7.35048 7.77582 7.72731 7.43867L9.69647 5.67692H0.928571C0.415736 5.67692 0 5.27398 0 4.77692C0 4.27987 0.415736 3.87692 0.928571 3.87692H9.94202L7.67669 1.51241C7.32773 1.14817 7.34949 0.578712 7.7253 0.240489Z" fill="#12130C"/>
</svg>
