<svg width="111" height="24" viewBox="0 0 111 24" fill="none" xmlns="http://www.w3.org/2000/svg">
<g clip-path="url(#clip0_184_10)">
<path d="M13 22V19H17V22H13ZM7 22V18H0L3.85 12H2L9 2L16 12H14.15L18.025 18H11V22H7ZM19.25 18L16 13H17.925L12.625 5.425L15 2L22 12H20.15L24 18H19.25Z" fill="#12130C"/>
</g>
<path d="M37.3395 8.45312C37.2732 7.83286 36.9938 7.34991 36.5014 7.00426C36.0137 6.65862 35.3793 6.4858 34.598 6.4858C34.0488 6.4858 33.5777 6.56866 33.1847 6.73438C32.7917 6.90009 32.491 7.125 32.2827 7.40909C32.0743 7.69318 31.9678 8.01752 31.9631 8.3821C31.9631 8.68513 32.0317 8.94792 32.169 9.17045C32.3111 9.39299 32.5028 9.58239 32.7443 9.73864C32.9858 9.89015 33.2533 10.018 33.5469 10.1222C33.8404 10.2263 34.1364 10.3139 34.4347 10.3849L35.7983 10.7259C36.3475 10.8537 36.8755 11.0265 37.3821 11.2443C37.8935 11.4621 38.3504 11.7367 38.7528 12.0682C39.16 12.3996 39.482 12.7997 39.7188 13.2685C39.9555 13.7372 40.0739 14.2865 40.0739 14.9162C40.0739 15.7685 39.8561 16.5189 39.4205 17.1676C38.9848 17.8116 38.3551 18.3158 37.5312 18.6804C36.7121 19.0402 35.7202 19.2202 34.5554 19.2202C33.4238 19.2202 32.4413 19.045 31.608 18.6946C30.7794 18.3442 30.1307 17.8329 29.6619 17.1605C29.1979 16.4882 28.947 15.669 28.9091 14.7031H31.5014C31.5393 15.2098 31.6955 15.6312 31.9702 15.9673C32.2448 16.3035 32.6023 16.5545 33.0426 16.7202C33.4877 16.8859 33.9848 16.9688 34.5341 16.9688C35.107 16.9688 35.6089 16.8835 36.0398 16.7131C36.4754 16.5379 36.8163 16.2964 37.0625 15.9886C37.3087 15.6761 37.4342 15.3116 37.4389 14.8949C37.4342 14.5161 37.3229 14.2036 37.1051 13.9574C36.8873 13.7064 36.5819 13.4981 36.1889 13.3324C35.8007 13.1619 35.3461 13.0104 34.8253 12.8778L33.1705 12.4517C31.9725 12.1439 31.0256 11.6776 30.3295 11.0526C29.6383 10.4228 29.2926 9.58712 29.2926 8.54545C29.2926 7.68845 29.5246 6.93797 29.9886 6.29403C30.4574 5.65009 31.0942 5.15057 31.8991 4.79545C32.7041 4.43561 33.6155 4.25568 34.6335 4.25568C35.6657 4.25568 36.5701 4.43561 37.3466 4.79545C38.1278 5.15057 38.741 5.64536 39.1861 6.27983C39.6312 6.90956 39.8608 7.634 39.875 8.45312H37.3395ZM45.4485 19.2202C44.7572 19.2202 44.1346 19.0971 43.5806 18.8509C43.0314 18.5999 42.5958 18.2306 42.2738 17.7429C41.9566 17.2552 41.7979 16.6539 41.7979 15.9389C41.7979 15.3234 41.9116 14.8144 42.1388 14.4119C42.3661 14.0095 42.6763 13.6875 43.0692 13.446C43.4622 13.2045 43.9049 13.0223 44.3974 12.8991C44.8945 12.7713 45.4083 12.679 45.9386 12.6222C46.5778 12.5559 47.0962 12.4967 47.494 12.4446C47.8917 12.3878 48.1805 12.3026 48.3604 12.1889C48.5451 12.0705 48.6374 11.8883 48.6374 11.642V11.5994C48.6374 11.0644 48.4788 10.6501 48.1616 10.3565C47.8443 10.063 47.3874 9.91619 46.7908 9.91619C46.1611 9.91619 45.6616 10.0535 45.2923 10.3281C44.9277 10.6027 44.6815 10.9271 44.5536 11.3011L42.1531 10.9602C42.3424 10.2973 42.6549 9.74337 43.0906 9.2983C43.5262 8.84848 44.0588 8.51231 44.6886 8.28977C45.3183 8.0625 46.0143 7.94886 46.7766 7.94886C47.3022 7.94886 47.8254 8.01042 48.3462 8.13352C48.8671 8.25663 49.3429 8.46023 49.7738 8.74432C50.2047 9.02367 50.5503 9.40483 50.8107 9.88778C51.0759 10.3707 51.2085 10.9744 51.2085 11.6989V19H48.7369V17.5014H48.6516C48.4954 17.8045 48.2752 18.0885 47.9911 18.3537C47.7118 18.6141 47.359 18.8248 46.9329 18.9858C46.5115 19.142 46.0167 19.2202 45.4485 19.2202ZM46.1161 17.331C46.6322 17.331 47.0797 17.2292 47.4585 17.0256C47.8372 16.8172 48.1284 16.5426 48.332 16.2017C48.5404 15.8608 48.6445 15.4891 48.6445 15.0866V13.8011C48.564 13.8674 48.4267 13.929 48.2326 13.9858C48.0432 14.0426 47.8301 14.0923 47.5934 14.1349C47.3567 14.1776 47.1223 14.2154 46.8903 14.2486C46.6583 14.2817 46.457 14.3101 46.2866 14.3338C45.9031 14.3859 45.5598 14.4711 45.2567 14.5895C44.9537 14.7079 44.7146 14.8736 44.5394 15.0866C44.3642 15.295 44.2766 15.5649 44.2766 15.8963C44.2766 16.3698 44.4495 16.7273 44.7951 16.9688C45.1407 17.2102 45.5811 17.331 46.1161 17.331ZM56.3647 12.608V19H53.7937V4.45455H56.3079V9.9446H56.4357C56.6914 9.32907 57.0868 8.84375 57.6218 8.48864C58.1616 8.12879 58.8481 7.94886 59.6815 7.94886C60.439 7.94886 61.0996 8.10748 61.663 8.42472C62.2264 8.74195 62.6621 9.20597 62.9698 9.81676C63.2823 10.4276 63.4386 11.1733 63.4386 12.054V19H60.8675V12.4517C60.8675 11.7178 60.6781 11.1473 60.2994 10.7401C59.9253 10.3281 59.3997 10.1222 58.7227 10.1222C58.2681 10.1222 57.8609 10.2216 57.5011 10.4205C57.146 10.6146 56.8666 10.8963 56.663 11.2656C56.4641 11.6349 56.3647 12.0824 56.3647 12.608ZM66.1729 19V4.45455H68.8079V16.7912H75.2141V19H66.1729ZM77.3874 19V8.09091H79.9585V19H77.3874ZM78.68 6.54261C78.2728 6.54261 77.9225 6.40767 77.6289 6.13778C77.3353 5.86316 77.1886 5.53409 77.1886 5.15057C77.1886 4.76231 77.3353 4.43324 77.6289 4.16335C77.9225 3.88873 78.2728 3.75142 78.68 3.75142C79.092 3.75142 79.4424 3.88873 79.7312 4.16335C80.0247 4.43324 80.1715 4.76231 80.1715 5.15057C80.1715 5.53409 80.0247 5.86316 79.7312 6.13778C79.4424 6.40767 79.092 6.54261 78.68 6.54261ZM82.6023 19V8.09091H85.0597V9.9446H85.1875C85.4148 9.3196 85.7912 8.83191 86.3168 8.48153C86.8423 8.12642 87.4697 7.94886 88.1989 7.94886C88.9375 7.94886 89.5601 8.12879 90.0668 8.48864C90.5781 8.84375 90.938 9.32907 91.1463 9.9446H91.2599C91.5014 9.33854 91.9086 8.85559 92.4815 8.49574C93.0592 8.13116 93.7434 7.94886 94.5341 7.94886C95.5379 7.94886 96.357 8.2661 96.9915 8.90057C97.6259 9.53504 97.9432 10.4607 97.9432 11.6776V19H95.3651V12.0753C95.3651 11.3982 95.1851 10.9034 94.8253 10.5909C94.4654 10.2737 94.0251 10.1151 93.5043 10.1151C92.884 10.1151 92.3987 10.3092 92.0483 10.6974C91.7027 11.081 91.5298 11.5805 91.5298 12.196V19H89.0085V11.9688C89.0085 11.4053 88.8381 10.9555 88.4972 10.6193C88.161 10.2831 87.7206 10.1151 87.1761 10.1151C86.8068 10.1151 86.4706 10.2098 86.1676 10.3991C85.8646 10.5838 85.6231 10.8466 85.4432 11.1875C85.2633 11.5237 85.1733 11.9167 85.1733 12.3665V19H82.6023ZM103.691 19.2202C102.999 19.2202 102.377 19.0971 101.823 18.8509C101.274 18.5999 100.838 18.2306 100.516 17.7429C100.199 17.2552 100.04 16.6539 100.04 15.9389C100.04 15.3234 100.154 14.8144 100.381 14.4119C100.608 14.0095 100.918 13.6875 101.311 13.446C101.704 13.2045 102.147 13.0223 102.64 12.8991C103.137 12.7713 103.65 12.679 104.181 12.6222C104.82 12.5559 105.338 12.4967 105.736 12.4446C106.134 12.3878 106.423 12.3026 106.603 12.1889C106.787 12.0705 106.88 11.8883 106.88 11.642V11.5994C106.88 11.0644 106.721 10.6501 106.404 10.3565C106.087 10.063 105.63 9.91619 105.033 9.91619C104.403 9.91619 103.904 10.0535 103.534 10.3281C103.17 10.6027 102.924 10.9271 102.796 11.3011L100.395 10.9602C100.585 10.2973 100.897 9.74337 101.333 9.2983C101.768 8.84848 102.301 8.51231 102.931 8.28977C103.56 8.0625 104.257 7.94886 105.019 7.94886C105.544 7.94886 106.068 8.01042 106.588 8.13352C107.109 8.25663 107.585 8.46023 108.016 8.74432C108.447 9.02367 108.792 9.40483 109.053 9.88778C109.318 10.3707 109.451 10.9744 109.451 11.6989V19H106.979V17.5014H106.894C106.738 17.8045 106.517 18.0885 106.233 18.3537C105.954 18.6141 105.601 18.8248 105.175 18.9858C104.754 19.142 104.259 19.2202 103.691 19.2202ZM104.358 17.331C104.874 17.331 105.322 17.2292 105.701 17.0256C106.079 16.8172 106.371 16.5426 106.574 16.2017C106.783 15.8608 106.887 15.4891 106.887 15.0866V13.8011C106.806 13.8674 106.669 13.929 106.475 13.9858C106.285 14.0426 106.072 14.0923 105.836 14.1349C105.599 14.1776 105.364 14.2154 105.132 14.2486C104.9 14.2817 104.699 14.3101 104.529 14.3338C104.145 14.3859 103.802 14.4711 103.499 14.5895C103.196 14.7079 102.957 14.8736 102.782 15.0866C102.606 15.295 102.519 15.5649 102.519 15.8963C102.519 16.3698 102.692 16.7273 103.037 16.9688C103.383 17.2102 103.823 17.331 104.358 17.331Z" fill="#12130C"/>
<defs>
<clipPath id="clip0_184_10">
<rect width="24" height="24" fill="white"/>
</clipPath>
</defs>
</svg>
